inDegrees=yes
name=ik_S41_A04_T01
DataType=double
version=3
OpenSimVersion=4.3-2021-08-27-4bc7ad9
endheader
time	pelvis_tilt	pelvis_list	pelvis_rotation	pelvis_tx	pelvis_ty	pelvis_tz	hip_flexion_r	hip_adduction_r	hip_rotation_r	knee_angle_r	knee_angle_r_beta	ankle_angle_r	subtalar_angle_r	mtp_angle_r	hip_flexion_l	hip_adduction_l	hip_rotation_l	knee_angle_l	knee_angle_l_beta	ankle_angle_l	subtalar_angle_l	mtp_angle_l	lumbar_extension	lumbar_bending	lumbar_rotation	arm_flex_r	arm_add_r	arm_rot_r	elbow_flex_r	pro_sup_r	wrist_flex_r	wrist_dev_r	arm_flex_l	arm_add_l	arm_rot_l	elbow_flex_l	pro_sup_l	wrist_flex_l	wrist_dev_l
9.639999999999883	1.795720278039333	-0.3621497742523652	25.50217303578562	0	0.9399999999999999	0	4.98950932079552	-1.538594744451495	0.3593862834001803	4.335141827544267	0.07566249843157166	0	0	0	-0.2697583745865064	-3.99244641064515	-8.205228041138712	-0.9328705864358325	-0.01628166322831563	0	0	0	0	0	0	12.9998013009665	-12.9998013009665	2.269613260070503	49.3269642122677	87.73038687190788	0	0	12.9998013009665	-12.9998013009665	2.269613260070503	49.3269642122677	87.73038687139746	0	0
9.659999999999883	1.93627255653323	-0.2935038032223899	25.54897756087452	0	0.9399999999999999	0	5.029324127676695	-1.288947750965935	1.289346771712845	4.463027181353049	0.07789451892061278	0	0	0	-1.071985901829892	-4.251682603355459	-8.52998920965169	-1.488566904009466	-0.02598039361118357	0	0	0	0	0	0	13.004570777051	-13.004570777051	2.270388391809615	49.33873440165507	87.72961174021307	0	0	13.004570777051	-13.004570777051	2.270388391809615	49.33873440165507	87.7296117397028	0	0
9.679999999999882	1.987453179640798	-0.2242711273163334	25.66374503197866	0	0.9399999999999999	0	4.969363060944677	-1.063016588178961	1.587955246706879	4.401798248582288	0.07682587244628074	0	0	0	-1.138551258224008	-4.192213495069496	-8.857430774630428	-1.435537856178037	-0.02505486212732756	0	0	0	0	0	0	13.00810979742322	-13.00810979742322	2.270963305580572	49.34746167347345	87.72903682647495	0	0	13.00810979742322	-13.00810979742322	2.270963305580572	49.34746167347345	87.72903682596478	0	0
9.699999999999882	1.855979412294821	-0.2426156278992828	25.89673546158372	0	0.9399999999999999	0	4.968838296288192	-1.006860886837401	1.45798122855668	4.328743187792631	0.07555082110025663	0	0	0	-0.7012870351437781	-4.14098045998092	-9.013424808040677	-0.8334579616567969	-0.01454658560787176	0	0	0	0	0	0	13.01373466677744	-13.01373466677744	2.271876573307015	49.36132028998119	87.72812355880068	0	0	13.01373466677744	-13.01373466677744	2.271876573307015	49.36132028998119	87.72812355829078	0	0
9.719999999999882	1.695857244773436	-0.2694780611949494	26.11339037708453	0	0.9399999999999999	0	5.166904023480286	-1.317777200965152	1.375216185713786	4.363027257625038	0.07614919099981578	0	0	0	-0.4476757575622344	-4.104110852103551	-8.781606851518417	-0.7236234588568871	-0.0126296119017224	0	0	0	0	0	0	13.01652218687711	-13.0165221868771	2.272326420108112	49.36812487499653	87.72767371202521	0	0	13.01652218687711	-13.0165221868771	2.272326420108112	49.36812487499653	87.72767371151544	0	0
9.739999999999881	1.659073307271497	-0.2859484681623227	26.26270693925881	0	0.9399999999999999	0	5.257568827212542	-1.671917801894011	1.2209712264885	4.431282293345331	0.07734046610420123	0	0	0	-0.4079153594484201	-4.08081518800556	-8.583128851973873	-0.666290766356572	-0.01162896764855845	0	0	0	0	0	0	13.01895546131155	-13.01895546131155	2.272717556067128	49.37402930713203	87.7272825760885	0	0	13.01895546131155	-13.01895546131155	2.272717556067128	49.37402930713203	87.72728257557878	0	0
9.759999999999881	1.601755512926164	-0.3144842247818811	26.48124773474776	0	0.9399999999999999	0	5.30538670846288	-1.868009012784448	0.6584954273993716	4.505353511184214	0.07863325273645171	0	0	0	-0.3778212063469067	-4.052577449187659	-8.359836242553182	-0.6794632870334888	-0.01185887150515767	0	0	0	0	0	0	13.02102414869645	-13.02102414869644	2.273051565814589	49.37908247210692	87.72694856636009	0	0	13.02102414869645	-13.02102414869644	2.273051565814589	49.37908247210692	87.72694856585046	0	0
9.77999999999988	1.600022132374151	-0.3260242578346081	26.6063826281998	0	0.9399999999999999	0	5.268072315786072	-1.898958229501015	0.3092835708047606	4.568342935810659	0.07973262559011997	0	0	0	-0.437316268225482	-4.016179471954555	-8.146106440634311	-0.7662867248400641	-0.01337422636278294	0	0	0	0	0	0	13.02341224290913	-13.02341224290912	2.27343923045244	49.38496302491206	87.72656090174436	0	0	13.02341224290913	-13.02341224290912	2.27343923045244	49.38496302491206	87.72656090123479	0	0
9.79999999999988	1.674442983076571	-0.2785914076944006	26.52059159934089	0	0.9399999999999999	0	5.286528533839605	-1.728453714103801	0.5746330091019467	4.637585988145204	0.08094114483748852	0	0	0	-0.6286958762455174	-4.005575773398875	-8.180677390012772	-0.8983629925535279	-0.01567939209812836	0	0	0	0	0	0	13.02661800532879	-13.02661800532879	2.273955283719487	49.3927579267795	87.72604484850675	0	0	13.02661800532879	-13.02661800532879	2.273955283719487	49.3927579267795	87.72604484799726	0	0
9.819999999999879	1.784693452528169	-0.2263395363524838	26.37814199549241	0	0.9399999999999999	0	5.195924416870001	-1.547264416400818	0.7433471760332632	4.676185646776831	0.08161483597075625	0	0	0	-0.7907916719890145	-3.980574458750252	-8.284915567812154	-1.05058224834753	-0.01833611929666916	0	0	0	0	0	0	13.03116084089276	-13.03116084089275	2.274688123406317	49.40383855065355	87.72531200886178	0	0	13.03116084089276	-13.03116084089275	2.274688123406317	49.40383855065355	87.7253120083524	0	0
9.839999999999879	1.77707684543628	-0.2318806035852454	26.22277891412524	0	0.9399999999999999	0	5.27971577264258	-1.492005827456683	0.8961590116540228	4.758203473416362	0.083046317090946	0	0	0	-0.7494044591664575	-3.948342490878301	-8.464668419148992	-1.061366301482702	-0.01852433653058793	0	0	0	0	0	0	13.098425823432	-13.09842582343199	2.284848727060481	49.54498177774682	87.71515140577914	0	0	13.098425823432	-13.09842582343199	2.284848727060481	49.54498177774682	87.71515140527165	0	0
9.859999999999879	1.665030303412997	-0.2995954695353398	26.16029594753481	0	0.9399999999999999	0	5.563938874612701	-1.494683749506783	1.083006158048202	4.821324960864314	0.08414799487566903	0	0	0	-0.5238942865550851	-3.906206799547344	-8.597297263633857	-0.9911240545280595	-0.01729837804723045	0	0	0	0	0	0	13.10136073555711	-13.10136073555711	2.285323684565853	49.55216822162393	87.71467644830084	0	0	13.10136073555711	-13.10136073555711	2.285323684565853	49.55216822162393	87.71467644779354	0	0
9.879999999999878	1.442784297269051	-0.3988724885504963	26.10434663172633	0	0.9399999999999999	0	5.974626713418466	-1.526697691126649	1.021499850758967	5.07412821384171	0.08856024399987675	0	0	0	-0.1256747296067229	-3.853180763431075	-8.700170615542273	-0.7513329915117272	-0.01311323448073825	0	0	0	0	0	0	13.11113037352258	-13.11113037352258	2.286900795489051	49.57599940212974	87.71309933746771	0	0	13.11113037352258	-13.11113037352258	2.286900795489051	49.57599940212974	87.71309933696074	0	0
9.899999999999878	1.173428485620663	-0.530349352733562	26.05638635377506	0	0.9399999999999999	0	6.440090195882955	-1.49002825566195	0.9544387073068522	5.233433243319073	0.09134064127924335	0	0	0	0.318004483249102	-3.791383511600375	-8.752083521474777	-0.6255157283150761	-0.0109173089821084	0	0	0	0	0	0	13.11689519609691	-13.11689519609691	2.28783006919667	49.59002880816621	87.71217006381309	0	0	13.11689519609691	-13.11689519609691	2.28783006919667	49.59002880816621	87.71217006330636	0	0
9.919999999999877	0.918609787675946	-0.6690082439383818	25.9067960119638	0	0.9399999999999999	0	6.982402913395648	-1.350315832405558	0.9894489438526929	5.357732178498843	0.09351006695485335	0	0	0	0.7360560502703388	-3.722108053645517	-8.787613496493091	-0.5714456894124429	-0.009973608776576029	0	0	0	0	0	0	13.11944085535845	-13.11944085535844	2.288239920240973	49.59621184191236	87.71176021279217	0	0	13.11944085535845	-13.11944085535844	2.288239920240973	49.59621184191236	87.71176021228547	0	0
9.939999999999877	0.571387030990162	-0.891380829236423	25.80493496920067	0	0.9399999999999999	0	7.641659438285991	-1.199268329137126	0.6927853208900706	5.78310904119311	0.1009342937706721	0	0	0	1.310406587349772	-3.645695016409534	-8.689550231755392	-0.3731735402296901	-0.006513106958331608	0	0	0	0	0	0	13.12692567339413	-13.12692567339413	2.289452664748321	49.61456467684997	87.71054746835406	0	0	13.12692567339413	-13.12692567339413	2.289452664748321	49.61456467684997	87.71054746784758	0	0
9.959999999999877	0.3295500897571276	-1.040996199812035	25.74325229603266	0	0.9399999999999999	0	8.494633064792	-1.341572201568885	-0.1710657362195529	6.480937979476897	0.1131137063594205	0	0	0	1.594952084469426	-3.675187232579766	-8.716623049403136	-0.4020496025393075	-0.007017089320645471	0	0	0	0	0	0	13.13449663604481	-13.13449663604481	2.290679647457376	49.63313288660716	87.70932048571505	0	0	13.13449663604481	-13.13449663604481	2.290679647457376	49.63313288660716	87.70932048520885	0	0
9.979999999999876	0.05138536043016488	-1.183015758645976	25.62280554900509	0	0.9399999999999999	0	8.814333470606257	-1.322345335036944	-0.06020994075429677	6.450663555081733	0.1125853179745788	0	0	0	2.042201446749368	-3.582747074872048	-8.628929148525817	-0.3928211918735429	-0.006856023169801715	0	0	0	0	0	0	13.13780013563369	-13.13780013563369	2.291212498981102	49.64117643437491	87.70878763422175	0	0	13.13780013563369	-13.13780013563369	2.291212498981102	49.64117643437491	87.70878763371563	0	0
9.999999999999876	-0.2816761667554971	-1.349764565886855	25.44447973276315	0	0.9399999999999999	0	9.181459583812448	-1.291504946312677	0.1142451573935742	6.416423554515444	0.1119877172288124	0	0	0	2.554190842374959	-3.507181748621078	-8.642844964376533	-0.3755760351418573	-0.006555038404811338	0	0	0	0	0	0	13.14011110543536	-13.14011110543535	2.291583182287005	49.64675580168735	87.70841695093698	0	0	13.14011110543536	-13.14011110543535	2.291583182287005	49.64675580168735	87.70841695043092	0	0
10.01999999999988	-0.6223252276510289	-1.533576364885812	25.27953039873476	0	0.9399999999999999	0	9.854830174378964	-1.183216658025032	-0.1056676981624127	6.660706482658958	0.1162512586313294	0	0	0	2.970541213483231	-3.513480126625939	-8.760997082858328	-0.3892801161489077	-0.006794219739344388	0	0	0	0	0	0	13.14532528394948	-13.14532528394948	2.292426504154666	49.6595018941804	87.70757362911743	0	0	13.14532528394948	-13.14532528394948	2.292426504154666	49.6595018941804	87.70757362861161	0	0
